# xmcd
#
# Track frame offsets:
#	150
#	11325
#	32925
#	50340
#	65940
#	91515
#	115215
#	137115
#	157215
#	176715
#	183240
#	204540
#	220365
#	231615
#	249615
#	262290
#	264840
#	279390
#	306690
#
# Disc length: 4264 seconds
#
# Revision: 0
# Processed by: cddbd v1.4PL0 Copyright (c) Steve Scherf et al.
# Submitted via: audiograbber 1.82.01
#
DISCID=2910a613
DTITLE=Marie Fredriksson - Rarities
DYEAR=2003
DGENRE=pop
TTITLE0=Den flygande hollanderen (Intro) [With Bjorn J:Son Lindth]
TTITLE1=Ann Katrin, farval
TTITLE2=Sa skimrande var aldrig havet
TTITLE3=Mellan sommar och host (Single version)
TTITLE4=Drommen (Z-mix)
TTITLE5=Solen gick ner over stan (Single version)
TTITLE6=Somliga gar med trasiga skor [With Eldkvarn]
TTITLE7=Ett minne battre glomt [With Totta Naslund]
TTITLE8=Herren ber for dig
TTITLE9=Om du sag mej nu (Instrumental)
TTITLE10=Alla mina basta ar (With Frida)
TTITLE11=Det finns mycket kanner till
TTITLE12=Rickie Lee
TTITLE13=Det som var nu (Instrumental)
TTITLE14=(The best part of) Breaking up
TTITLE15=Barbara Ann
TTITLE16=Love the one you`re with [With Lasse Lindbom and Per Gessle]
TTITLE17=2 Cinnamon street
TTITLE18=Dr. Feelgood - Roxette
EXTD=Printed and sended to CDDB by Dennis.\nSpecial thanx for this CD to Igor M &
EXTD=all Roxette fans in Moscow !
EXTT0=
EXTT1=
EXTT2=
EXTT3=
EXTT4=
EXTT5=
EXTT6=
EXTT7=
EXTT8=
EXTT9=
EXTT10=
EXTT11=
EXTT12=
EXTT13=
EXTT14=
EXTT15=
EXTT16=
EXTT17=
EXTT18=
PLAYORDER=
